<svg width="18" height="18" viewBox="0 0 18 18" fill="none" xmlns="http://www.w3.org/2000/svg">
<path d="M10.4099 9.00006L16.7099 2.71006C16.8982 2.52176 17.004 2.26636 17.004 2.00006C17.004 1.73376 16.8982 1.47837 16.7099 1.29006C16.5216 1.10176 16.2662 0.995972 15.9999 0.995972C15.7336 0.995972 15.4782 1.10176 15.2899 1.29006L8.99994 7.59006L2.70994 1.29006C2.52164 1.10176 2.26624 0.995972 1.99994 0.995972C1.73364 0.995972 1.47824 1.10176 1.28994 1.29006C1.10164 1.47837 0.995847 1.73376 0.995847 2.00006C0.995847 2.26636 1.10164 2.52176 1.28994 2.71006L7.58994 9.00006L1.28994 15.2901C1.19621 15.3831 1.12182 15.4937 1.07105 15.6155C1.02028 15.7374 0.994141 15.8681 0.994141 16.0001C0.994141 16.1321 1.02028 16.2628 1.07105 16.3847C1.12182 16.5065 1.19621 16.6171 1.28994 16.7101C1.3829 16.8038 1.4935 16.8782 1.61536 16.929C1.73722 16.9798 1.86793 17.0059 1.99994 17.0059C2.13195 17.0059 2.26266 16.9798 2.38452 16.929C2.50638 16.8782 2.61698 16.8038 2.70994 16.7101L8.99994 10.4101L15.2899 16.7101C15.3829 16.8038 15.4935 16.8782 15.6154 16.929C15.7372 16.9798 15.8679 17.0059 15.9999 17.0059C16.132 17.0059 16.2627 16.9798 16.3845 16.929C16.5064 16.8782 16.617 16.8038 16.7099 16.7101C16.8037 16.6171 16.8781 16.5065 16.9288 16.3847C16.9796 16.2628 17.0057 16.1321 17.0057 16.0001C17.0057 15.8681 16.9796 15.7374 16.9288 15.6155C16.8781 15.4937 16.8037 15.3831 16.7099 15.2901L10.4099 9.00006Z" fill="white"/>
</svg>
