<svg width="100" height="100" viewBox="0 0 100 100" fill="none" xmlns="http://www.w3.org/2000/svg">
<ellipse cx="48.5" cy="54" rx="44.5" ry="46" fill="white"/>
<path fill-rule="evenodd" clip-rule="evenodd" d="M50.0414 0C22.3698 0 0 22.9166 0 51.2675C0 73.9299 14.3331 93.1132 34.2169 99.9027C36.7029 100.413 37.6135 98.7996 37.6135 97.4423C37.6135 96.2538 37.5315 92.1798 37.5315 87.9351C23.6112 90.9913 20.7125 81.8236 20.7125 81.8236C18.4754 75.882 15.1607 74.3549 15.1607 74.3549C10.6046 71.2143 15.4926 71.2143 15.4926 71.2143C20.5465 71.5539 23.1984 76.4768 23.1984 76.4768C27.6716 84.2851 34.8796 82.0788 37.7794 80.7205C38.1932 77.4101 39.5197 75.1184 40.9281 73.8455C29.8257 72.657 18.1445 68.2435 18.1445 48.5508C18.1445 42.9488 20.1317 38.3655 23.2804 34.8009C22.7836 33.528 21.0433 28.2645 23.7782 21.2197C23.7782 21.2197 28.0035 19.8614 37.5305 26.4822C41.6094 25.36 45.8159 24.7891 50.0414 24.7843C54.2666 24.7843 58.5738 25.3791 62.5512 26.4822C72.0793 19.8614 76.3045 21.2197 76.3045 21.2197C79.0394 28.2645 77.2981 33.528 76.8013 34.8009C80.033 38.3655 81.9382 42.9488 81.9382 48.5508C81.9382 68.2435 70.257 72.5716 59.0716 73.8455C60.8949 75.458 62.4682 78.5132 62.4682 83.3517C62.4682 90.2267 62.3863 95.7444 62.3863 97.4413C62.3863 98.7996 63.2979 100.413 65.7829 99.9037C85.6667 93.1121 99.9998 73.9299 99.9998 51.2675C100.082 22.9166 77.63 0 50.0414 0Z" fill="#2A3439"/>
</svg>
