<svg width="18" height="18" viewBox="0 0 18 18" fill="none" xmlns="http://www.w3.org/2000/svg">
<path fill-rule="evenodd" clip-rule="evenodd" d="M1.22185 6.8787C0.0502753 8.05028 0.0502754 9.94977 1.22185 11.1213L6.8787 16.7782C8.05027 17.9498 9.94977 17.9498 11.1213 16.7782L16.7782 11.1213C17.9498 9.94977 17.9498 8.05027 16.7782 6.8787L11.1213 1.22185C9.94977 0.0502756 8.05027 0.0502758 6.8787 1.22185L1.22185 6.8787ZM11.1213 11.1213C12.2929 9.94977 12.2929 8.05028 11.1213 6.8787C9.94978 5.70713 8.05028 5.70713 6.87871 6.8787C5.70714 8.05028 5.70714 9.94977 6.87871 11.1213C8.05028 12.2929 9.94978 12.2929 11.1213 11.1213Z" fill="white"/>
</svg>
