<svg width="18" height="18" viewBox="0 0 18 18" fill="none" xmlns="http://www.w3.org/2000/svg">
<path fill-rule="evenodd" clip-rule="evenodd" d="M1.22182 6.87879C0.0502459 8.05037 0.0502461 9.94986 1.22182 11.1214L6.87867 16.7783C8.05024 17.9499 9.94974 17.9499 11.1213 16.7783L16.7782 11.1214C17.9498 9.94986 17.9498 8.05036 16.7782 6.87879L11.1213 1.22194C9.94974 0.0503681 8.05024 0.0503682 6.87867 1.22194L1.22182 6.87879ZM11.1213 11.1214C12.2929 9.94986 12.2929 8.05037 11.1213 6.87879C9.94975 5.70722 8.05025 5.70722 6.87868 6.87879C5.70711 8.05037 5.70711 9.94986 6.87868 11.1214C8.05025 12.293 9.94975 12.293 11.1213 11.1214Z" fill="white"/>
</svg>
